HIERARCHY
ROOT pelvis
{
  OFFSET 0 0 0
  CHANNELS 6 Xposition Yposition Zposition Zrotation Xrotation Yrotation
  JOINT pelvis_right_femur
  {
    OFFSET -11.43119 -3.542788 0.2090856
    CHANNELS 3 Zrotation Xrotation Yrotation
    JOINT right_femur_tibia
    {
      OFFSET -1.028693 -40.73281 5
      CHANNELS 3 Zrotation Xrotation Yrotation
      JOINT right_tibia_foot
      {
        OFFSET -0.5013517 -42.05707 -5
        CHANNELS 3 Zrotation Xrotation Yrotation
        End Site
        {
          OFFSET 0 -5 10
        }
      }
    }
  }
  JOINT pelvis_left_femur
  {
    OFFSET 11.43119 -3.542788 0.2090856
    CHANNELS 3 Zrotation Xrotation Yrotation
    JOINT left_femur_tibia
    {
      OFFSET 1.028693 -40.73281 5
      CHANNELS 3 Zrotation Xrotation Yrotation
      JOINT left_tibia_foot
      {
        OFFSET 0.3200228 -42.98253 -5
        CHANNELS 3 Zrotation Xrotation Yrotation
        End Site
        {
          OFFSET 0 -5 10
        }
      }
    }
  }
  JOINT pelvis_spine1
  {
    OFFSET 0 8.64413 -3.209807
    CHANNELS 3 Zrotation Xrotation Yrotation
    JOINT spine1
    {
      OFFSET 0 29.53957 -1.762685
      CHANNELS 3 Zrotation Xrotation Yrotation
      JOINT spine2
      {
        OFFSET 0 16.36153 -0.1422377
        CHANNELS 3 Zrotation Xrotation Yrotation
        JOINT neck
        {
          OFFSET 0 11.60093 5
          CHANNELS 3 Zrotation Xrotation Yrotation
          End Site
          {
            OFFSET 0 20 0
          }
        }
      }
      JOINT right_manubrium
      {
        OFFSET -4.671311 15.89868 4
        CHANNELS 3 Zrotation Xrotation Yrotation
        JOINT right_clavicle
        {
          OFFSET -13.601 1.573642 -2.74176
          CHANNELS 3 Zrotation Xrotation Yrotation
          JOINT right_humerus
          {
            OFFSET -0.06331682 -27.72702 2.252146
            CHANNELS 3 Zrotation Xrotation Yrotation
            JOINT right_radius
            {
              OFFSET -0.5696302 -23.92083 0.4042105
              CHANNELS 3 Zrotation Xrotation Yrotation
              End Site
              {
                OFFSET 0 -15 0
              }
            }
          }
        }
      }
      JOINT left_manubrium
      {
        OFFSET 4.671311 15.89868 4
        CHANNELS 3 Zrotation Xrotation Yrotation
        JOINT left_clavicle
        {
          OFFSET 13.601 1.573642 -2.74176
          CHANNELS 3 Zrotation Xrotation Yrotation
          JOINT left_humerus
          {
            OFFSET 0.000209614 -29.01858 1.101395
            CHANNELS 3 Zrotation Xrotation Yrotation
            JOINT left_radius
            {
              OFFSET -0.2288314 -24.59216 1.790347
              CHANNELS 3 Zrotation Xrotation Yrotation
              End Site
              {
                OFFSET 0 -15 0
              }
            }
          }
        }
      }
    }
  }
}
MOTION
Frames: 23
Frame Time: 0.0416666666667
0 48.05195 0 -3.14904 -21.99817 -1.195875 -50.17576 -59.22399 -37.93608 -180 81.33315 -180 10.95404 2.002741 2.164149 62.99943 -49.585 51.01675 -180 72.28531 -180 -6.798716 -7.328374 -13.27483 0.5100234 22.04543 1.869488 6.978753 15.59481 -9.076649 -13.19095 9.277273 4.889531 8.619052 -28.78308 -4.177468 19.78457 -12.33715 25.20513 -64.04002 -28.2703 15.80682 0 -67.38632 0 8.308413 -13.41361 24.68844 -27.27772 -34.42596 -3.341054 50.46474 -22.40399 -29.88319 0 -72.61305 0 -16.30084 15.9681 -38.00096
-0.04786779 48.17945 -0.01232158 -3.186783 -21.91966 -1.238791 -50.33043 -59.19222 -38.15349 -180 81.36678 -180 10.95324 2.015007 2.244997 63.02544 -49.64625 51.04438 -180 72.2669 -180 -6.805126 -7.338859 -13.20903 0.6516766 22.16299 1.77778 7.140695 15.44778 -9.147521 -13.40158 9.294498 4.927264 8.565738 -28.89073 -4.275769 20.35826 -13.86685 25.1512 -64.76451 -27.50376 13.42423 0 -65.80433 0 7.130927 -13.96203 23.77023 -27.37363 -34.45922 -3.154835 50.54141 -22.22573 -29.83213 0 -72.87635 0 -16.32059 15.83554 -37.93184
-0.08660861 48.31853 -0.005520842 -3.229935 -21.79974 -1.3101 -50.56765 -59.16022 -38.47146 -180 81.40588 -180 10.95125 2.02893 2.363179 63.06198 -49.72264 51.09108 -180 72.23927 -180 -6.81694 -7.356033 -13.11722 0.8697817 22.31947 1.648726 7.315461 15.23332 -9.221076 -13.68994 9.312848 4.99962 8.486945 -29.0403 -4.377522 21.08432 -16.023 25.18431 -65.79668 -26.48961 10.2102 0 -63.33307 0 5.605607 -14.54789 22.45167 -27.50359 -34.49491 -2.907723 50.66343 -21.96537 -29.76061 0 -73.24794 0 -16.35133 15.636 -37.82319
-0.119285 48.4695 0.02471157 -3.269831 -21.64181 -1.416531 -50.88375 -59.13888 -38.87497 -180 81.4429 -180 10.94809 2.042188 2.512104 63.10232 -49.8071 51.15442 -180 72.20468 -180 -6.834856 -7.37932 -13.00324 1.157146 22.49958 1.494197 7.467643 14.97103 -9.281355 -14.03552 9.321497 5.105405 8.383426 -29.22355 -4.468566 21.87459 -18.64069 25.35814 -67.06044 -25.2995 6.472621 0 -60.02691 0 3.903183 -15.05361 20.81137 -27.65696 -34.53063 -2.626423 50.83036 -21.63798 -29.67209 0 -73.70421 0 -16.39331 15.37205 -37.67216
-0.1495471 48.63048 0.07841952 -3.288913 -21.45218 -1.558141 -51.27554 -59.14559 -39.3431 -180 81.46705 -180 10.9443 2.052064 2.681229 63.13222 -49.89406 51.22673 -180 72.16781 -180 -6.859708 -7.407035 -12.86924 1.500047 22.68309 1.33482 7.555544 14.69857 -9.310907 -14.41417 9.298897 5.23402 8.253664 -29.43261 -4.545152 22.59803 -21.47106 25.71055 -68.45687 -24.02838 2.624703 0 -55.99178 0 2.260084 -15.37325 18.96776 -27.82006 -34.57045 -2.349543 51.04102 -21.26728 -29.56871 0 -74.21368 0 -16.44821 15.04513 -37.47241
-0.1808587 48.79727 0.1501437 -3.263315 -21.23881 -1.72804 -51.7419 -59.20146 -39.85354 -180 81.46576 -180 10.94073 2.055614 2.858101 63.13308 -49.97912 51.29745 -180 72.13464 -180 -6.89248 -7.436945 -12.71613 1.881594 22.84763 1.196208 7.534376 14.46308 -9.291761 -14.80065 9.217549 5.369655 8.094362 -29.66025 -4.609568 23.09148 -24.22722 26.25204 -69.88854 -22.79756 -0.8829949 0 -51.35381 0 0.95157 -15.42304 17.06019 -27.97796 -34.62194 -2.121775 51.29419 -20.88104 -29.45166 0 -74.74142 0 -16.51871 14.6553 -37.21514
-0.2159953 48.96429 0.230581 -3.177356 -21.01027 -1.91827 -52.27798 -59.31916 -40.38678 -180 81.43128 -180 10.93812 2.051069 3.031949 63.09167 -50.05982 51.35792 -180 72.10972 -180 -6.933385 -7.467156 -12.54581 2.284266 22.97704 1.097866 7.380164 14.29853 -9.214433 -15.17545 9.060021 5.499604 7.903895 -29.89917 -4.66431 23.23938 -26.69308 26.95392 -71.2862 -21.71214 -3.738443 0 -46.26734 0 0.1715342 -15.17962 15.20419 -28.12016 -34.68985 -1.974471 51.5846 -20.50314 -29.32425 0 -75.25695 0 -16.60581 14.20521 -36.89474
-0.256559 49.12626 0.3099472 -3.030924 -20.77542 -2.123052 -52.87012 -59.49714 -40.92478 -180 81.36398 -180 10.93715 2.038404 3.194234 63.00388 -50.13671 51.40329 -180 72.0951 -180 -6.981443 -7.496573 -12.36248 2.689331 23.06408 1.048915 7.10425 14.2145 -9.081991 -15.52903 8.826205 5.61995 7.68233 -30.1405 -4.707142 23.02389 -28.76599 27.76008 -72.60705 -20.83245 -5.835794 0 -40.94207 0 -0.03492731 -14.68927 13.46511 -28.24459 -34.77289 -1.917216 51.89835 -20.15198 -29.19612 0 -75.73361 0 -16.70914 13.70088 -36.50744
-0.302358 49.27977 0.3813212 -2.836714 -20.54358 -2.336852 -53.49405 -59.72252 -41.44513 -180 81.27122 -180 10.93868 2.018851 3.336157 62.87116 -50.21443 51.43115 -180 72.09117 -180 -7.034726 -7.524855 -12.17256 3.073625 23.10676 1.052032 6.753261 14.19991 -8.908114 -15.86203 8.529572 5.736802 7.428016 -30.37212 -4.728236 22.52309 -30.42134 28.60468 -73.81391 -20.17795 -7.221834 0 -35.67454 0 0.241983 -14.0518 11.86422 -28.35848 -34.86453 -1.943035 52.20963 -19.84516 -29.08696 0 -76.14004 0 -16.82964 13.14875 -36.04358
-0.3511266 49.42415 0.4426178 -2.613458 -20.32395 -2.551189 -54.11841 -59.97672 -41.92141 -180 81.16412 -180 10.94376 1.994263 3.448671 62.69775 -50.30002 51.44045 -180 72.09744 -180 -7.090844 -7.552114 -11.98362 3.411659 23.1055 1.106419 6.393806 14.23239 -8.712323 -16.18144 8.190455 5.862622 7.137671 -30.5802 -4.712738 21.87275 -31.67354 29.42689 -74.86824 -19.73978 -8.023372 0 -30.80889 0 0.8324939 -13.38773 10.39791 -28.47458 -34.9554 -2.035965 52.48588 -19.60013 -29.02238 0 -76.44142 0 -16.96956 12.55427 -35.48834
-0.3991792 49.56098 0.4958781 -2.377857 -20.12387 -2.75379 -54.7147 -60.24176 -42.33289 -180 81.05293 -180 10.95297 1.966538 3.526508 62.49111 -50.39737 51.43225 -180 72.11256 -180 -7.147495 -7.578469 -11.80301 3.68509 23.06271 1.206929 6.081366 14.29055 -8.512761 -16.49295 7.828394 6.00825 6.811739 -30.75471 -4.648872 21.1966 -32.55516 30.18382 -75.74323 -19.49475 -8.379109 0 -26.6103 0 1.572944 -12.791 9.056951 -28.60256 -35.03718 -2.177866 52.70327 -19.42797 -29.02058 0 -76.61449 0 -17.12896 11.92273 -34.83253
-0.4424023 49.69298 0.544936 -2.143425 -19.94928 -2.932091 -55.26012 -60.50111 -42.6683 -180 80.94469 -180 10.96617 1.937352 3.57034 62.26444 -50.50224 51.41129 -180 72.13403 -180 -7.202427 -7.603707 -11.63917 3.886193 22.981 1.342008 5.845067 14.36028 -8.323522 -16.79627 7.458012 6.18019 6.457806 -30.89167 -4.530238 20.56948 -33.10219 30.84769 -76.42711 -19.41686 -8.401546 0 -23.22214 0 2.350059 -12.31328 7.833817 -28.7435 -35.10413 -2.350984 52.85436 -19.33148 -29.08701 0 -76.65183 0 -17.3056 11.25731 -34.0719
-0.4768727 49.82295 0.5930854 -1.926239 -19.8073 -3.079074 -55.73106 -60.73523 -42.92053 -180 80.84415 -180 10.98272 1.908245 3.585921 62.03981 -50.59957 51.38778 -180 72.15774 -180 -7.252824 -7.627127 -11.50547 4.013383 22.86012 1.491747 5.693927 14.43392 -8.157495 -17.085 7.089215 6.384272 6.090541 -30.99094 -4.350953 20.02629 -33.34212 31.39105 -76.91181 -19.48287 -8.173367 0 -20.72935 0 3.090053 -11.98201 6.720014 -28.88964 -35.15228 -2.536141 52.94515 -19.30925 -29.21919 0 -76.55245 0 -17.49814 10.55433 -33.19368
-0.4991296 49.95332 0.6415995 -1.745934 -19.70613 -3.195804 -56.10196 -60.92223 -43.08344 -180 80.75468 -180 11.00175 1.880684 3.581837 61.84516 -50.66735 51.37566 -180 72.17861 -180 -7.295452 -7.647694 -11.41889 4.067829 22.69713 1.631055 5.625588 14.50788 -8.027111 -17.34896 6.728578 6.626777 5.728541 -31.05428 -4.104371 19.57817 -33.2928 31.78406 -77.18857 -19.6733 -7.753914 0 -19.1937 0 3.743568 -11.813 5.705204 -29.02775 -35.17877 -2.71347 52.98899 -19.35841 -29.41093 0 -76.31674 0 -17.7062 9.803807 -32.17582
-0.5064039 50.08591 0.6897129 -1.617645 -19.65098 -3.287871 -56.35545 -61.04676 -43.15539 -180 80.67851 -180 11.02231 1.856111 3.566212 61.70182 -50.68868 51.38511 -180 72.19278 -180 -7.328008 -7.664559 -11.39074 4.053726 22.4913 1.740085 5.631673 14.58067 -7.940354 -17.5784 6.380927 6.909738 5.387997 -31.08474 -3.789165 19.22266 -32.97283 32.01031 -77.25612 -19.97184 -7.18354 0 -18.6217 0 4.285636 -11.80693 4.781841 -29.14622 -35.18289 -2.868711 52.99913 -19.47396 -29.65268 0 -75.95097 0 -17.92627 8.997594 -31.00478
-0.497024 50.22203 0.7353983 -1.548145 -19.64306 -3.361697 -56.48655 -61.10385 -43.1415 -180 80.61798 -180 11.04323 1.836753 3.545163 61.61735 -50.6589 51.41682 -180 72.19898 -180 -7.349667 -7.677331 -11.42117 3.977607 22.24703 1.809529 5.70224 14.65138 -7.899475 -17.76433 6.051291 7.227613 5.080462 -31.08574 -3.413371 18.95069 -32.40228 32.0756 -77.12126 -20.36976 -6.482897 0 -18.96252 0 4.713656 -11.95054 3.947299 -29.2389 -35.16729 -2.997245 52.98299 -19.64976 -29.93015 0 -75.46736 0 -18.15026 8.129207 -29.67576
-0.4711089 50.36261 0.7759369 -1.539739 -19.68282 -3.423781 -56.49631 -61.09461 -43.0515 -180 80.57778 -180 11.0629 1.827084 3.523657 61.58798 -50.58395 51.46076 -180 72.19826 -180 -7.360395 -7.685924 -11.50043 3.845833 21.9728 1.83779 5.829393 14.71891 -7.903926 -17.89445 5.746884 7.567511 4.816146 -31.05956 -2.9937 18.74994 -31.59032 32.0029 -76.78759 -20.8749 -5.647458 0 -20.1545 0 5.039419 -12.22653 3.201914 -29.30402 -35.13889 -3.103596 52.93955 -19.8818 -30.22244 0 -74.87719 0 -18.3667 7.183006 -28.17037
-0.4310609 50.50825 0.8082394 -1.592967 -19.77128 -3.480296 -56.38777 -61.02271 -42.89738 -180 80.56465 -180 11.07933 1.833365 3.506033 61.60346 -50.47601 51.49986 -180 72.19307 -180 -7.360452 -7.690404 -11.61313 3.663631 21.67901 1.827527 6.007848 14.78183 -7.952231 -17.95347 5.476828 7.912307 4.605082 -31.007 -2.551853 18.60708 -30.53401 31.82453 -76.25157 -21.50844 -4.652288 0 -22.1462 0 5.281806 -12.61888 2.547005 -29.34242 -35.10753 -3.198184 52.86119 -20.1689 -30.50447 0 -74.18864 0 -18.56088 6.133741 -26.45384
-0.3810331 50.65929 0.8293391 -1.704661 -19.90684 -3.535818 -56.17009 -60.89466 -42.69248 -180 80.58288 -180 11.09105 1.859873 3.49498 61.65203 -50.34795 51.5193 -180 72.18588 -180 -7.350611 -7.691025 -11.7443 3.436739 21.37511 1.78457 6.231985 14.83873 -8.040767 -17.93219 5.248638 8.246952 4.452794 -30.92903 -2.107906 18.51141 -29.2386 31.57429 -75.51434 -22.2823 -3.476232 0 -24.86487 0 5.460939 -13.10891 1.983653 -29.35681 -35.08134 -3.291849 52.73995 -20.50969 -30.7567 0 -73.41483 0 -18.71546 4.965773 -24.50749
-0.3257517 50.81579 0.8372631 -1.866119 -20.08257 -3.592614 -55.86153 -60.72084 -42.45085 -180 80.63091 -180 11.09754 1.906106 3.490692 61.72298 -50.21053 51.51189 -180 72.17826 -180 -7.332395 -7.688249 -11.88281 3.172427 21.06692 1.719024 6.493591 14.88813 -8.162215 -17.8338 5.067031 8.561621 4.357492 -30.82793 -1.677759 18.45596 -27.72839 31.2853 -74.5895 -23.18787 -2.115823 0 -28.19403 0 5.595221 -13.67092 1.511837 -29.35205 -35.06416 -3.394596 52.5671 -20.90393 -30.97136 0 -72.58393 0 -18.81188 3.682788 -22.34409
-0.2694958 50.97741 0.8323283 -2.063131 -20.28596 -3.650754 -55.48857 -60.51592 -42.18662 -180 80.70122 -180 11.09907 1.966562 3.490866 61.80577 -50.07336 51.47654 -180 72.17087 -180 -7.308044 -7.68268 -12.02054 2.878899 20.75464 1.647924 6.781849 14.92757 -8.304849 -17.67324 4.936721 8.84984 4.311167 -30.70708 -1.276595 18.43486 -26.03816 30.99485 -73.49981 -24.20501 -0.5784226 0 -31.98086 0 5.701648 -14.27077 1.130035 -29.33615 -35.05683 -3.520086 52.32369 -21.35947 -31.15169 0 -71.74677 0 -18.83008 2.298736 -19.99047
-0.2155 51.14342 0.8181232 -2.278208 -20.5009 -3.708937 -55.08161 -60.29724 -41.91278 -180 80.78245 -180 11.09632 2.032469 3.491528 61.88989 -49.94561 51.41549 -180 72.16378 -180 -7.280214 -7.674976 -12.15119 2.564566 20.43373 1.593672 7.084579 14.95374 -8.453948 -17.47272 4.863325 9.106748 4.302276 -30.5704 -0.920051 18.44081 -24.20498 30.74376 -72.27186 -25.31062 1.124748 0 -36.05615 0 5.796153 -14.86918 0.8355236 -29.31945 -35.05865 -3.685939 51.98027 -21.89238 -31.30853 0 -70.97085 0 -18.74928 0.8307465 -17.47382
-0.1658753 51.3128 0.8007967 -2.496102 -20.71298 -3.766153 -54.66705 -60.07989 -41.63959 -180 80.86408 -180 11.09016 2.095689 3.489046 61.96731 -49.83405 51.33302 -180 72.15687 -180 -7.251272 -7.665715 -12.2707 2.237675 20.10036 1.574549 7.390655 14.96434 -8.59666 -17.25318 4.849308 9.329931 4.319608 -30.42174 -0.61872 18.46495 -22.26831 30.56244 -70.93355 -26.47818 2.975815 0 -40.26456 0 5.892427 -15.43209 0.6255906 -29.3096 -35.06725 -3.903681 51.51706 -22.51238 -31.45476 0 -70.31156 0 -18.55418 -0.6970965 -14.82703
